P3
# ppm file 
8  8
7

0 0 0   0  0  0   0  0  0   0  0  0   0  0  0    0  0  0   0 0 0   7   7   7 
0 0 0   7  7  0   0  0  0   0  7  3   0  0  0    7  0  0   0 0 0   6   0   0  
0 0 0   4  2  0   0  0  0   0  6  4   0  0  0    6  0  0   0 0 0   0   5   0  
0 0 0   3  5  0   0  7  0   1  4  7   0  0  0    5  0  0   0 0 0   0   0   4  
0 0 0   7  5  0   0  0  0   3  4  1   0  0  0    4  0  0   0 0 0   4   0   0   
0 0 0   6  2  0   0  0  0   0  6  2   0  0  0    3  0  0   0 0 0   0   5   0  
0 0 0   0  7  0   0  0  0   0  7  0   0  0  0    7  0  0   0 0 0   0   0   6  
0 0 0   0  0  0   0  0  0   0  0  0   0  0  0    0  0  0   0 0 0   7   7   7  
